<?xml version="1.0" encoding="UTF-8"?>
<!DOCTYPE svg PUBLIC "-//W3C//DTD SVG 1.1//EN" "http://www.w3.org/Graphics/SVG/1.1/DTD/svg11.dtd">
<!-- Creator: CorelDRAW -->
<svg xmlns="http://www.w3.org/2000/svg" xml:space="preserve" width="12px" height="12px" style="shape-rendering:geometricPrecision; text-rendering:geometricPrecision; image-rendering:optimizeQuality; fill-rule:evenodd; clip-rule:evenodd"
viewBox="0 0 0.538335 0.538335"
 xmlns:xlink="http://www.w3.org/1999/xlink">
 <defs>
  <style type="text/css">
   <![CDATA[
    .fil0 {fill:#5CD4FF;fill-rule:nonzero}
   ]]>
  </style>
 </defs>
 <g id="Layer_x0020_1">
  <metadata id="CorelCorpID_0Corel-Layer"/>
  <path class="fil0" d="M0.269168 0c0.0740211,0 0.141313,0.0302019 0.190166,0.0790017l0.000158957 -0.000158957 5.29857e-005 5.29857e-005 5.29857e-005 5.29857e-005c0.0485879,0.0486939 0.0787368,0.115986 0.0787368,0.190219 0,0.074286 -0.0301489,0.141631 -0.0788428,0.190325 -0.0486939,0.0486939 -0.116039,0.0788428 -0.190325,0.0788428 -0.074286,0 -0.141631,-0.0301489 -0.190325,-0.0788428l-0.00429185 -0.00466275c-0.0462036,-0.048429 -0.0745509,-0.113866 -0.0745509,-0.185662 0,-0.0739151 0.0301489,-0.141207 0.0788428,-0.190007l0.000211943 -0.000211943 -0.000158957 -0.000158957 0.00466275 -0.00429185c0.048429,-0.0461506 0.113866,-0.074498 0.185609,-0.074498zm0.134796 0.134372l-0.0554761 0.0552111c-0.0200816,-0.0200816 -0.048164,-0.0325332 -0.0793197,-0.0325332 -0.0295131,0 -0.0564298,0.01118 -0.0761935,0.0294601l-0.00312616 0.00339109 -0.0554761 -0.0555291 0.0552111 0.0554761c-0.0200816,0.0200816 -0.0325332,0.048164 -0.0325332,0.0793197 0,0.029566 0.01118,0.0564298 0.0295131,0.0761935l0.00328512 0.00312616c0.0202935,0.0202406 0.048376,0.0327982 0.0793197,0.0327982 0.0309437,0 0.0590261,-0.0125576 0.0793197,-0.0327982 0.0202406,-0.0202935 0.0327982,-0.048376 0.0327982,-0.0793197 0,-0.0309437 -0.0125576,-0.0590261 -0.0327982,-0.0793197l-5.29857e-005 0 0.0555291 -0.0554761z"/>
 </g>
</svg>
