<?xml version="1.0" encoding="UTF-8"?>
<!DOCTYPE svg PUBLIC "-//W3C//DTD SVG 1.1//EN" "http://www.w3.org/Graphics/SVG/1.1/DTD/svg11.dtd">
<!-- Creator: CorelDRAW -->
<svg xmlns="http://www.w3.org/2000/svg" xml:space="preserve" width="12px" height="12px" style="shape-rendering:geometricPrecision; text-rendering:geometricPrecision; image-rendering:optimizeQuality; fill-rule:evenodd; clip-rule:evenodd"
viewBox="0 0 0.44739 0.44739"
 xmlns:xlink="http://www.w3.org/1999/xlink">
 <defs>
  <style type="text/css">
   <![CDATA[
    .fil0 {fill:#FEFEFE;fill-rule:nonzero}
   ]]>
  </style>
 </defs>
 <g id="Layer_x0020_1">
  <metadata id="CorelCorpID_0Corel-Layer"/>
  <path class="fil0" d="M0.223695 0c0.0615161,0 0.11744,0.0250996 0.15804,0.0656553l0.000132103 -0.000132103 4.40344e-005 4.40344e-005 4.40344e-005 4.40344e-005c0.0403796,0.0404676 0.0654352,0.0963914 0.0654352,0.158084 0,0.0617363 -0.0250556,0.117704 -0.0655232,0.158172 -0.0404676,0.0404676 -0.0964354,0.0655232 -0.158172,0.0655232 -0.0617363,0 -0.117704,-0.0250556 -0.158172,-0.0655232l-0.00356679 -0.00387503c-0.038398,-0.0402475 -0.0619564,-0.09463 -0.0619564,-0.154297 0,-0.061428 0.0250556,-0.117352 0.0655232,-0.157907l0.000176138 -0.000176138 -0.000132103 -0.000132103 0.00387503 -0.00356679c0.0402475,-0.038354 0.09463,-0.0619124 0.154253,-0.0619124zm0.112024 0.111671l-0.0461041 0.0458839c-0.0166891,-0.0166891 -0.0400273,-0.0270371 -0.0659195,-0.0270371 -0.0245272,0 -0.0468967,0.00929127 -0.0633215,0.0244831l-0.00259803 0.0028182 -0.0461041 -0.0461481 0.0458839 0.0461041c-0.0166891,0.0166891 -0.0270371,0.0400273 -0.0270371,0.0659195 0,0.0245712 0.00929127,0.0468967 0.0245272,0.0633215l0.00273013 0.00259803c0.0168652,0.0168212 0.0402034,0.0272573 0.0659195,0.0272573 0.0257161,0 0.0490544,-0.0104362 0.0659195,-0.0272573 0.0168212,-0.0168652 0.0272573,-0.0402034 0.0272573,-0.0659195 0,-0.0257161 -0.0104362,-0.0490544 -0.0272573,-0.0659195l-4.40344e-005 0 0.0461481 -0.0461041z"/>
 </g>
</svg>
