<?xml version="1.0" encoding="UTF-8"?>
<!DOCTYPE svg PUBLIC "-//W3C//DTD SVG 1.1//EN" "http://www.w3.org/Graphics/SVG/1.1/DTD/svg11.dtd">
<!-- Creator: CorelDRAW -->
<svg xmlns="http://www.w3.org/2000/svg" xml:space="preserve" width="12px" height="12px" style="shape-rendering:geometricPrecision; text-rendering:geometricPrecision; image-rendering:optimizeQuality; fill-rule:evenodd; clip-rule:evenodd"
viewBox="0 0 0.387382 0.387382"
 xmlns:xlink="http://www.w3.org/1999/xlink">
 <defs>
  <style type="text/css">
   <![CDATA[
    .fil0 {fill:#1D1E1E;fill-rule:nonzero}
   ]]>
  </style>
 </defs>
 <g id="Layer_x0020_1">
  <metadata id="CorelCorpID_0Corel-Layer"/>
  <path class="fil0" d="M0.193691 0c0.053265,0 0.101688,0.0217331 0.136842,0.0568491l0.000114384 -0.000114384 3.81282e-005 3.81282e-005 3.81282e-005 3.81282e-005c0.0349635,0.0350398 0.0566584,0.0834625 0.0566584,0.13688 0,0.0534557 -0.0216949,0.101917 -0.0567347,0.136956 -0.0350398,0.0350398 -0.0835007,0.0567347 -0.136956,0.0567347 -0.0534557,0 -0.101917,-0.0216949 -0.136956,-0.0567347l-0.00308838 -0.00335528c-0.0332478,-0.0348491 -0.0536463,-0.0819374 -0.0536463,-0.133601 0,-0.0531888 0.0216949,-0.101612 0.0567347,-0.136728l0.000152513 -0.000152513 -0.000114384 -0.000114384 0.00335528 -0.00308838c0.0348491,-0.0332096 0.0819374,-0.0536082 0.133563,-0.0536082zm0.096998 0.096693l-0.0399202 0.0397295c-0.0144506,-0.0144506 -0.0346585,-0.0234107 -0.0570779,-0.0234107 -0.0212374,0 -0.0406065,0.00804504 -0.0548283,0.0211993l-0.00224956 0.0024402 -0.0399202 -0.0399583 0.0397295 0.0399202c-0.0144506,0.0144506 -0.0234107,0.0346585 -0.0234107,0.0570779 0,0.0212755 0.00804504,0.0406065 0.0212374,0.0548283l0.00236395 0.00224956c0.0146031,0.014565 0.034811,0.0236013 0.0570779,0.0236013 0.0222668,0 0.0424748,-0.00903637 0.0570779,-0.0236013 0.014565,-0.0146031 0.0236013,-0.034811 0.0236013,-0.0570779 0,-0.0222668 -0.00903637,-0.0424748 -0.0236013,-0.0570779l-3.81282e-005 0 0.0399583 -0.0399202z"/>
 </g>
</svg>
