<?xml version="1.0" encoding="UTF-8"?>
<!DOCTYPE svg PUBLIC "-//W3C//DTD SVG 1.1//EN" "http://www.w3.org/Graphics/SVG/1.1/DTD/svg11.dtd">
<!-- Creator: CorelDRAW -->
<svg xmlns="http://www.w3.org/2000/svg" xml:space="preserve" width="9px" height="9px" style="shape-rendering:geometricPrecision; text-rendering:geometricPrecision; image-rendering:optimizeQuality; fill-rule:evenodd; clip-rule:evenodd"
viewBox="0 0 0.295514 0.295514"
 xmlns:xlink="http://www.w3.org/1999/xlink">
 <defs>
  <style type="text/css">
   <![CDATA[
    .fil0 {fill:#FEFEFE;fill-rule:nonzero}
   ]]>
  </style>
 </defs>
 <g id="Layer_x0020_1">
  <metadata id="CorelCorpID_0Corel-Layer"/>
  <path class="fil0" d="M0.147757 0c0.0406429,0 0.0776016,0.0165209 0.104361,0.0433188l3.87814e-005 3.87814e-005 3.87814e-005 0 3.87814e-005 -3.87814e-005 0.00182273 0.00193907c0.0256733,0.026604 0.0414573,0.0627871 0.0414573,0.102499 0,0.0406817 -0.0165597,0.0776016 -0.0433188,0.104361l-0.0208644 -0.0207868 0.0209032 0.0208644 -0.00193907 0.00178394c-0.0266428,0.0257121 -0.0627871,0.0415349 -0.102538,0.0415349 -0.0406429,0 -0.0776016,-0.0165209 -0.104361,-0.0433188l-3.87814e-005 -3.87814e-005 -3.87814e-005 0 -3.87814e-005 3.87814e-005 -0.00182273 -0.00193907c-0.0256733,-0.026604 -0.0414573,-0.0627871 -0.0414573,-0.102499 0,-0.0406817 0.0165209,-0.0776016 0.0433188,-0.104361l3.87814e-005 -3.87814e-005 0 -3.87814e-005 -3.87814e-005 -3.87814e-005 0.00193907 -0.00182273c0.026604,-0.0256733 0.0627483,-0.0414573 0.102499,-0.0414573zm0.0835739 0.0641832l-0.0208644 0.0207868c-0.0159392,-0.0159392 -0.0381221,-0.0258284 -0.0627095,-0.0258284 -0.0238506,0 -0.0454906,0.00930754 -0.0613134,0.0244323l-0.00139613 0.00151247 -0.0208644 -0.0209032 0.0207868 0.0208644c-0.0159392,0.0159392 -0.0258284,0.0381221 -0.0258284,0.0627095 0,0.0238506 0.00930754,0.0454906 0.0244323,0.0613134l0.00151247 0.00139613 -0.0209032 0.0208644 0.0208644 -0.0207868c0.0159392,0.0159392 0.0381221,0.0258284 0.0627095,0.0258284 0.0238118,0 0.0454518,-0.00934632 0.0613134,-0.0245098l0.00135735 -0.00139613 3.87814e-005 3.87814e-005 7.75628e-005 -3.87814e-005c0.0159004,-0.0160167 0.0258284,-0.0382385 0.0258284,-0.0627095 0,-0.0238506 -0.00930754,-0.0454906 -0.0244323,-0.0613134l-0.00151247 -0.00139613 0.0209032 -0.0208644z"/>
 </g>
</svg>
